ffmpeg started on 2026-01-13 at 11:49:37
Report written to "D:\Convert\FFMetrics\reports\psnr_report-6.txt"
Log level: 32
Command line:
ffmpeg -hide_banner -nostdin -r 24000/1001 -i "F:\\Convert\\files\\[DC] Make Heroine ga Oosugiru - 07_Telegram_HEVC(84).mkv" -r 24000/1001 -i "F:\\Convert\\files\\[DC] Make Heroine ga Oosugiru - 07_Telegram.mp4" -lavfi "[0:v]settb=AVTB,setpts=PTS-STARTPTS,format=pix_fmts=yuv420p10le,fps=24000/1001,scale=1920:1080:flags=lanczos:param0=3:out_range=limited:out_color_matrix=bt709:out_chroma_loc=left,setsar=1/1,setdar=(1920/1080)*(1/1),colorspace=format=yuv420p10:range=tv:primaries=bt709:trc=bt709:space=bt709:fast=0[main];[1:v]settb=AVTB,setpts=PTS-STARTPTS,format=pix_fmts=yuv420p,fps=24000/1001,scale=1920:1080:flags=lanczos:param0=3:out_range=limited:out_color_matrix=bt709:out_chroma_loc=left,setsar=1.000,setdar=1.778,colorspace=format=yuv420p:range=tv:primaries=bt709:trc=bt709:space=bt709:fast=0[ref];[main][ref]psnr=eof_action=endall:stats_file='D\\:/Convert/FFMetrics/logs/psnr_logfile-6.txt'" -f null -
Input #0, matroska,webm, from 'F:\Convert\files\[DC] Make Heroine ga Oosugiru - 07_Telegram_HEVC(84).mkv':
  Metadata:
    COMPATIBLE_BRANDS: isomiso2avc1mp41
    MAJOR_BRAND     : isom
    MINOR_VERSION   : 512
    ENCODER         : Lavf61.7.100
  Duration: 00:24:06.79, start: -0.021000, bitrate: 928 kb/s
  Stream #0:0: Video: hevc (Main 10), yuv420p10le(tv, bt709, progressive), 1920x1080 [SAR 1:1 DAR 16:9], 23.98 fps, 23.98 tbr, 1k tbn (default)
      Metadata:
        HANDLER_NAME    : VideoHandler
        VENDOR_ID       : [0][0][0][0]
        ENCODER         : Lavc61.19.100 libx265
        BPS             : 731656
        DURATION        : 00:24:06.569708333
        NUMBER_OF_FRAMES: 34683
        NUMBER_OF_BYTES : 132298984
        _STATISTICS_WRITING_APP: mkvpropedit v94.0 ('Initiate') 64-bit
        _STATISTICS_WRITING_DATE_UTC: 2026-01-11 16:37:46
        _STATISTICS_TAGS: BPS DURATION NUMBER_OF_FRAMES NUMBER_OF_BYTES
  Stream #0:1: Audio: aac (LC), 48000 Hz, stereo, fltp (default)
      Metadata:
        HANDLER_NAME    : SoundHandler
        VENDOR_ID       : [0][0][0][0]
        ENCODER         : Lavc61.19.100 aac
        BPS             : 193194
        DURATION        : 00:24:06.784000000
        NUMBER_OF_FRAMES: 67819
        NUMBER_OF_BYTES : 34938755
        _STATISTICS_WRITING_APP: mkvpropedit v94.0 ('Initiate') 64-bit
        _STATISTICS_WRITING_DATE_UTC: 2026-01-11 16:37:46
        _STATISTICS_TAGS: BPS DURATION NUMBER_OF_FRAMES NUMBER_OF_BYTES
Input #1, mov,mp4,m4a,3gp,3g2,mj2, from 'F:\Convert\files\[DC] Make Heroine ga Oosugiru - 07_Telegram.mp4':
  Metadata:
    major_brand     : isom
    minor_version   : 512
    compatible_brands: isomiso2avc1mp41
    encoder         : Lavf60.16.100
  Duration: 00:24:06.74, start: 0.000000, bitrate: 3764 kb/s
  Stream #1:0[0x1](und): Video: h264 (High) (avc1 / 0x31637661), yuv420p(tv, bt709, progressive), 1920x1080 [SAR 1:1 DAR 16:9], 3616 kb/s, 23.98 fps, 23.98 tbr, 24k tbn (default)
      Metadata:
        handler_name    : VideoHandler
        vendor_id       : [0][0][0][0]
        encoder         : Lavc60.31.102 h264_qsv
  Stream #1:1[0x2](und): Audio: aac (HE-AACv2) (mp4a / 0x6134706D), 48000 Hz, stereo, fltp, 144 kb/s (default)
      Metadata:
        handler_name    : SoundHandler
        vendor_id       : [0][0][0][0]
Stream mapping:
  Stream #0:0 (hevc) -> settb:default
  Stream #1:0 (h264) -> settb:default
  psnr:default -> Stream #0:0 (wrapped_avframe)
  Stream #0:1 -> #0:1 (aac (native) -> pcm_s16le (native))
Output #0, null, to 'pipe:':
  Metadata:
    COMPATIBLE_BRANDS: isomiso2avc1mp41
    MAJOR_BRAND     : isom
    MINOR_VERSION   : 512
    encoder         : Lavf61.7.100
  Stream #0:0: Video: wrapped_avframe, yuv420p10le(tv, bt709, progressive), 1920x1080 [SAR 1:1 DAR 16:9], q=2-31, 200 kb/s, 23.98 fps, 23.98 tbn
      Metadata:
        encoder         : Lavc61.19.100 wrapped_avframe
  Stream #0:1: Audio: pcm_s16le, 48000 Hz, stereo, s16, 1536 kb/s (default)
      Metadata:
        HANDLER_NAME    : SoundHandler
        VENDOR_ID       : [0][0][0][0]
        _STATISTICS_TAGS: BPS DURATION NUMBER_OF_FRAMES NUMBER_OF_BYTES
        BPS             : 193194
        DURATION        : 00:24:06.784000000
        NUMBER_OF_FRAMES: 67819
        NUMBER_OF_BYTES : 34938755
        _STATISTICS_WRITING_APP: mkvpropedit v94.0 ('Initiate') 64-bit
        _STATISTICS_WRITING_DATE_UTC: 2026-01-11 16:37:46
        encoder         : Lavc61.19.100 pcm_s16le
frame=  149 fps=0.0 q=-0.0 size=N/A time=00:00:06.21 bitrate=N/A speed=  12x    frame=  348 fps=338 q=-0.0 size=N/A time=00:00:14.51 bitrate=N/A speed=14.1x    frame=  552 fps=355 q=-0.0 size=N/A time=00:00:23.02 bitrate=N/A speed=14.8x    frame=  757 fps=366 q=-0.0 size=N/A time=00:00:31.57 bitrate=N/A speed=15.3x    frame=  928 fps=357 q=-0.0 size=N/A time=00:00:38.70 bitrate=N/A speed=14.9x    frame= 1027 fps=330 q=-0.0 size=N/A time=00:00:42.83 bitrate=N/A speed=13.7x    frame= 1208 fps=333 q=-0.0 size=N/A time=00:00:50.38 bitrate=N/A speed=13.9x    frame= 1390 fps=336 q=-0.0 size=N/A time=00:00:57.97 bitrate=N/A speed=  14x    frame= 1555 fps=333 q=-0.0 size=N/A time=00:01:04.85 bitrate=N/A speed=13.9x    frame= 1725 fps=333 q=-0.0 size=N/A time=00:01:11.94 bitrate=N/A speed=13.9x    frame= 1901 fps=334 q=-0.0 size=N/A time=00:01:19.28 bitrate=N/A speed=13.9x    frame= 2067 fps=333 q=-0.0 size=N/A time=00:01:26.21 bitrate=N/A speed=13.9x    frame= 2218 fps=330 q=-0.0 size=N/A time=00:01:32.50 bitrate=N/A speed=13.8x    frame= 2397 fps=331 q=-0.0 size=N/A time=00:01:39.97 bitrate=N/A speed=13.8x    frame= 2549 fps=329 q=-0.0 size=N/A time=00:01:46.31 bitrate=N/A speed=13.7x    frame= 2724 fps=329 q=-0.0 size=N/A time=00:01:53.61 bitrate=N/A speed=13.7x    frame= 2900 fps=330 q=-0.0 size=N/A time=00:02:00.95 bitrate=N/A speed=13.8x    frame= 3092 fps=332 q=-0.0 size=N/A time=00:02:08.96 bitrate=N/A speed=13.9x    frame= 3257 fps=332 q=-0.0 size=N/A time=00:02:15.84 bitrate=N/A speed=13.8x    frame= 3454 fps=334 q=-0.0 size=N/A time=00:02:24.06 bitrate=N/A speed=13.9x    frame= 3645 fps=336 q=-0.0 size=N/A time=00:02:32.02 bitrate=N/A speed=  14x    frame= 3849 fps=339 q=-0.0 size=N/A time=00:02:40.53 bitrate=N/A speed=14.1x    frame= 4034 fps=339 q=-0.0 size=N/A time=00:02:48.25 bitrate=N/A speed=14.2x    frame= 4227 fps=341 q=-0.0 size=N/A time=00:02:56.30 bitrate=N/A speed=14.2x    frame= 4432 fps=343 q=-0.0 size=N/A time=00:03:04.85 bitrate=N/A speed=14.3x    frame= 4630 fps=345 q=-0.0 size=N/A time=00:03:13.10 bitrate=N/A speed=14.4x    frame= 4830 fps=346 q=-0.0 size=N/A time=00:03:21.45 bitrate=N/A speed=14.4x    frame= 5027 fps=348 q=-0.0 size=N/A time=00:03:29.66 bitrate=N/A speed=14.5x    frame= 5214 fps=348 q=-0.0 size=N/A time=00:03:37.46 bitrate=N/A speed=14.5x    frame= 5413 fps=349 q=-0.0 size=N/A time=00:03:45.76 bitrate=N/A speed=14.6x    frame= 5599 fps=350 q=-0.0 size=N/A time=00:03:53.52 bitrate=N/A speed=14.6x    frame= 5786 fps=350 q=-0.0 size=N/A time=00:04:01.32 bitrate=N/A speed=14.6x    frame= 5927 fps=348 q=-0.0 size=N/A time=00:04:07.20 bitrate=N/A speed=14.5x    frame= 6126 fps=349 q=-0.0 size=N/A time=00:04:15.50 bitrate=N/A speed=14.6x    frame= 6322 fps=350 q=-0.0 size=N/A time=00:04:23.68 bitrate=N/A speed=14.6x    frame= 6518 fps=351 q=-0.0 size=N/A time=00:04:31.85 bitrate=N/A speed=14.6x    frame= 6710 fps=351 q=-0.0 size=N/A time=00:04:39.86 bitrate=N/A speed=14.7x    frame= 6905 fps=352 q=-0.0 size=N/A time=00:04:47.99 bitrate=N/A speed=14.7x    frame= 7092 fps=352 q=-0.0 size=N/A time=00:04:55.79 bitrate=N/A speed=14.7x    frame= 7290 fps=353 q=-0.0 size=N/A time=00:05:04.05 bitrate=N/A speed=14.7x    frame= 7486 fps=354 q=-0.0 size=N/A time=00:05:12.22 bitrate=N/A speed=14.8x    frame= 7672 fps=354 q=-0.0 size=N/A time=00:05:19.98 bitrate=N/A speed=14.8x    frame= 7848 fps=354 q=-0.0 size=N/A time=00:05:27.32 bitrate=N/A speed=14.8x    frame= 8056 fps=355 q=-0.0 size=N/A time=00:05:36.00 bitrate=N/A speed=14.8x    frame= 8240 fps=355 q=-0.0 size=N/A time=00:05:43.67 bitrate=N/A speed=14.8x    frame= 8402 fps=354 q=-0.0 size=N/A time=00:05:50.43 bitrate=N/A speed=14.8x    frame= 8591 fps=354 q=-0.0 size=N/A time=00:05:58.31 bitrate=N/A speed=14.8x    frame= 8791 fps=355 q=-0.0 size=N/A time=00:06:06.65 bitrate=N/A speed=14.8x    frame= 8981 fps=355 q=-0.0 size=N/A time=00:06:14.58 bitrate=N/A speed=14.8x    frame= 9177 fps=355 q=-0.0 size=N/A time=00:06:22.75 bitrate=N/A speed=14.8x    frame= 9373 fps=356 q=-0.0 size=N/A time=00:06:30.93 bitrate=N/A speed=14.8x    frame= 9563 fps=356 q=-0.0 size=N/A time=00:06:38.85 bitrate=N/A speed=14.9x    frame= 9760 fps=357 q=-0.0 size=N/A time=00:06:47.07 bitrate=N/A speed=14.9x    frame= 9956 fps=357 q=-0.0 size=N/A time=00:06:55.24 bitrate=N/A speed=14.9x    frame=10157 fps=358 q=-0.0 size=N/A time=00:07:03.63 bitrate=N/A speed=14.9x    frame=10346 fps=358 q=-0.0 size=N/A time=00:07:11.51 bitrate=N/A speed=14.9x    frame=10542 fps=358 q=-0.0 size=N/A time=00:07:19.68 bitrate=N/A speed=14.9x    frame=10730 fps=358 q=-0.0 size=N/A time=00:07:27.53 bitrate=N/A speed=14.9x    frame=10923 fps=359 q=-0.0 size=N/A time=00:07:35.58 bitrate=N/A speed=  15x    frame=11054 fps=357 q=-0.0 size=N/A time=00:07:41.04 bitrate=N/A speed=14.9x    frame=11255 fps=357 q=-0.0 size=N/A time=00:07:49.42 bitrate=N/A speed=14.9x    frame=11447 fps=358 q=-0.0 size=N/A time=00:07:57.43 bitrate=N/A speed=14.9x    frame=11643 fps=358 q=-0.0 size=N/A time=00:08:05.61 bitrate=N/A speed=14.9x    frame=11833 fps=358 q=-0.0 size=N/A time=00:08:13.53 bitrate=N/A speed=14.9x    frame=12027 fps=358 q=-0.0 size=N/A time=00:08:21.62 bitrate=N/A speed=14.9x    frame=12229 fps=359 q=-0.0 size=N/A time=00:08:30.05 bitrate=N/A speed=  15x    frame=12427 fps=359 q=-0.0 size=N/A time=00:08:38.30 bitrate=N/A speed=  15x    frame=12625 fps=360 q=-0.0 size=N/A time=00:08:46.56 bitrate=N/A speed=  15x    frame=12806 fps=360 q=-0.0 size=N/A time=00:08:54.11 bitrate=N/A speed=  15x    frame=12994 fps=360 q=-0.0 size=N/A time=00:09:01.95 bitrate=N/A speed=  15x    frame=13189 fps=360 q=-0.0 size=N/A time=00:09:10.09 bitrate=N/A speed=  15x    frame=13379 fps=360 q=-0.0 size=N/A time=00:09:18.01 bitrate=N/A speed=  15x    frame=13537 fps=359 q=-0.0 size=N/A time=00:09:24.60 bitrate=N/A speed=  15x    frame=13730 fps=359 q=-0.0 size=N/A time=00:09:32.65 bitrate=N/A speed=  15x    frame=13924 fps=360 q=-0.0 size=N/A time=00:09:40.74 bitrate=N/A speed=  15x    frame=14112 fps=360 q=-0.0 size=N/A time=00:09:48.58 bitrate=N/A speed=  15x    frame=14306 fps=360 q=-0.0 size=N/A time=00:09:56.67 bitrate=N/A speed=  15x    frame=14502 fps=360 q=-0.0 size=N/A time=00:10:04.85 bitrate=N/A speed=  15x    frame=14690 fps=360 q=-0.0 size=N/A time=00:10:12.73 bitrate=N/A speed=  15x    frame=14889 fps=361 q=-0.0 size=N/A time=00:10:20.99 bitrate=N/A speed=  15x    frame=15085 fps=361 q=-0.0 size=N/A time=00:10:29.17 bitrate=N/A speed=15.1x    frame=15270 fps=361 q=-0.0 size=N/A time=00:10:36.88 bitrate=N/A speed=15.1x    frame=15468 fps=361 q=-0.0 size=N/A time=00:10:45.14 bitrate=N/A speed=15.1x    frame=15667 fps=361 q=-0.0 size=N/A time=00:10:53.44 bitrate=N/A speed=15.1x    frame=15855 fps=361 q=-0.0 size=N/A time=00:11:01.28 bitrate=N/A speed=15.1x    frame=16054 fps=362 q=-0.0 size=N/A time=00:11:09.58 bitrate=N/A speed=15.1x    frame=16194 fps=361 q=-0.0 size=N/A time=00:11:15.42 bitrate=N/A speed=  15x    frame=16381 fps=361 q=-0.0 size=N/A time=00:11:23.22 bitrate=N/A speed=  15x    frame=16586 fps=361 q=-0.0 size=N/A time=00:11:31.77 bitrate=N/A speed=15.1x    frame=16785 fps=361 q=-0.0 size=N/A time=00:11:40.07 bitrate=N/A speed=15.1x    frame=16967 fps=361 q=-0.0 size=N/A time=00:11:47.66 bitrate=N/A speed=15.1x    frame=17161 fps=361 q=-0.0 size=N/A time=00:11:55.75 bitrate=N/A speed=15.1x    frame=17346 fps=361 q=-0.0 size=N/A time=00:12:03.47 bitrate=N/A speed=15.1x    frame=17538 fps=362 q=-0.0 size=N/A time=00:12:11.48 bitrate=N/A speed=15.1x    frame=17730 fps=362 q=-0.0 size=N/A time=00:12:19.48 bitrate=N/A speed=15.1x    frame=17929 fps=362 q=-0.0 size=N/A time=00:12:27.78 bitrate=N/A speed=15.1x    frame=18119 fps=362 q=-0.0 size=N/A time=00:12:35.71 bitrate=N/A speed=15.1x    frame=18314 fps=362 q=-0.0 size=N/A time=00:12:43.84 bitrate=N/A speed=15.1x    frame=18503 fps=362 q=-0.0 size=N/A time=00:12:51.72 bitrate=N/A speed=15.1x    frame=18674 fps=362 q=-0.0 size=N/A time=00:12:58.86 bitrate=N/A speed=15.1x    frame=18863 fps=362 q=-0.0 size=N/A time=00:13:06.74 bitrate=N/A speed=15.1x    frame=19056 fps=362 q=-0.0 size=N/A time=00:13:14.79 bitrate=N/A speed=15.1x    frame=19251 fps=362 q=-0.0 size=N/A time=00:13:22.92 bitrate=N/A speed=15.1x    frame=19453 fps=362 q=-0.0 size=N/A time=00:13:31.35 bitrate=N/A speed=15.1x    frame=19644 fps=363 q=-0.0 size=N/A time=00:13:39.31 bitrate=N/A speed=15.1x    frame=19837 fps=363 q=-0.0 size=N/A time=00:13:47.36 bitrate=N/A speed=15.1x    frame=20042 fps=363 q=-0.0 size=N/A time=00:13:55.91 bitrate=N/A speed=15.1x    frame=20231 fps=363 q=-0.0 size=N/A time=00:14:03.80 bitrate=N/A speed=15.1x    frame=20419 fps=363 q=-0.0 size=N/A time=00:14:11.64 bitrate=N/A speed=15.1x    frame=20604 fps=363 q=-0.0 size=N/A time=00:14:19.35 bitrate=N/A speed=15.1x    frame=20794 fps=363 q=-0.0 size=N/A time=00:14:27.28 bitrate=N/A speed=15.1x    frame=20993 fps=363 q=-0.0 size=N/A time=00:14:35.58 bitrate=N/A speed=15.2x    frame=21189 fps=363 q=-0.0 size=N/A time=00:14:43.75 bitrate=N/A speed=15.2x    frame=21325 fps=362 q=-0.0 size=N/A time=00:14:49.43 bitrate=N/A speed=15.1x    frame=21518 fps=363 q=-0.0 size=N/A time=00:14:57.47 bitrate=N/A speed=15.1x    frame=21717 fps=363 q=-0.0 size=N/A time=00:15:05.77 bitrate=N/A speed=15.1x    frame=21910 fps=363 q=-0.0 size=N/A time=00:15:13.82 bitrate=N/A speed=15.1x    frame=22108 fps=363 q=-0.0 size=N/A time=00:15:22.08 bitrate=N/A speed=15.1x    frame=22298 fps=363 q=-0.0 size=N/A time=00:15:30.01 bitrate=N/A speed=15.1x    frame=22491 fps=363 q=-0.0 size=N/A time=00:15:38.06 bitrate=N/A speed=15.1x    frame=22686 fps=363 q=-0.0 size=N/A time=00:15:46.19 bitrate=N/A speed=15.2x    frame=22786 fps=362 q=-0.0 size=N/A time=00:15:50.36 bitrate=N/A speed=15.1x    frame=22972 fps=362 q=-0.0 size=N/A time=00:15:58.12 bitrate=N/A speed=15.1x    frame=23167 fps=362 q=-0.0 size=N/A time=00:16:06.25 bitrate=N/A speed=15.1x    frame=23356 fps=362 q=-0.0 size=N/A time=00:16:14.13 bitrate=N/A speed=15.1x    frame=23561 fps=362 q=-0.0 size=N/A time=00:16:22.69 bitrate=N/A speed=15.1x    frame=23757 fps=362 q=-0.0 size=N/A time=00:16:30.86 bitrate=N/A speed=15.1x    frame=23943 fps=362 q=-0.0 size=N/A time=00:16:38.62 bitrate=N/A speed=15.1x    frame=24143 fps=363 q=-0.0 size=N/A time=00:16:46.96 bitrate=N/A speed=15.1x    frame=24332 fps=363 q=-0.0 size=N/A time=00:16:54.84 bitrate=N/A speed=15.1x    frame=24519 fps=363 q=-0.0 size=N/A time=00:17:02.64 bitrate=N/A speed=15.1x    frame=24716 fps=363 q=-0.0 size=N/A time=00:17:10.86 bitrate=N/A speed=15.1x    frame=24900 fps=363 q=-0.0 size=N/A time=00:17:18.53 bitrate=N/A speed=15.1x    frame=25100 fps=363 q=-0.0 size=N/A time=00:17:26.87 bitrate=N/A speed=15.1x    frame=25261 fps=363 q=-0.0 size=N/A time=00:17:33.59 bitrate=N/A speed=15.1x    frame=25420 fps=362 q=-0.0 size=N/A time=00:17:40.22 bitrate=N/A speed=15.1x    frame=25613 fps=362 q=-0.0 size=N/A time=00:17:48.27 bitrate=N/A speed=15.1x    frame=25797 fps=362 q=-0.0 size=N/A time=00:17:55.94 bitrate=N/A speed=15.1x    frame=25988 fps=362 q=-0.0 size=N/A time=00:18:03.91 bitrate=N/A speed=15.1x    frame=26181 fps=362 q=-0.0 size=N/A time=00:18:11.96 bitrate=N/A speed=15.1x    frame=26361 fps=362 q=-0.0 size=N/A time=00:18:19.47 bitrate=N/A speed=15.1x    frame=26557 fps=362 q=-0.0 size=N/A time=00:18:27.64 bitrate=N/A speed=15.1x    frame=26758 fps=363 q=-0.0 size=N/A time=00:18:36.03 bitrate=N/A speed=15.1x    frame=26945 fps=363 q=-0.0 size=N/A time=00:18:43.83 bitrate=N/A speed=15.1x    frame=27120 fps=363 q=-0.0 size=N/A time=00:18:51.13 bitrate=N/A speed=15.1x    frame=27320 fps=363 q=-0.0 size=N/A time=00:18:59.47 bitrate=N/A speed=15.1x    frame=27498 fps=363 q=-0.0 size=N/A time=00:19:06.89 bitrate=N/A speed=15.1x    frame=27700 fps=363 q=-0.0 size=N/A time=00:19:15.32 bitrate=N/A speed=15.1x    frame=27824 fps=362 q=-0.0 size=N/A time=00:19:20.49 bitrate=N/A speed=15.1x    frame=28021 fps=362 q=-0.0 size=N/A time=00:19:28.70 bitrate=N/A speed=15.1x    frame=28213 fps=362 q=-0.0 size=N/A time=00:19:36.71 bitrate=N/A speed=15.1x    frame=28417 fps=362 q=-0.0 size=N/A time=00:19:45.22 bitrate=N/A speed=15.1x    frame=28607 fps=362 q=-0.0 size=N/A time=00:19:53.15 bitrate=N/A speed=15.1x    frame=28802 fps=362 q=-0.0 size=N/A time=00:20:01.28 bitrate=N/A speed=15.1x    frame=28983 fps=362 q=-0.0 size=N/A time=00:20:08.83 bitrate=N/A speed=15.1x    frame=29161 fps=362 q=-0.0 size=N/A time=00:20:16.25 bitrate=N/A speed=15.1x    frame=29347 fps=362 q=-0.0 size=N/A time=00:20:24.01 bitrate=N/A speed=15.1x    frame=29533 fps=362 q=-0.0 size=N/A time=00:20:31.77 bitrate=N/A speed=15.1x    frame=29718 fps=362 q=-0.0 size=N/A time=00:20:39.48 bitrate=N/A speed=15.1x    frame=29903 fps=362 q=-0.0 size=N/A time=00:20:47.20 bitrate=N/A speed=15.1x    frame=30078 fps=362 q=-0.0 size=N/A time=00:20:54.50 bitrate=N/A speed=15.1x    frame=30246 fps=362 q=-0.0 size=N/A time=00:21:01.51 bitrate=N/A speed=15.1x    frame=30402 fps=361 q=-0.0 size=N/A time=00:21:08.01 bitrate=N/A speed=15.1x    frame=30596 fps=362 q=-0.0 size=N/A time=00:21:16.10 bitrate=N/A speed=15.1x    frame=30790 fps=362 q=-0.0 size=N/A time=00:21:24.19 bitrate=N/A speed=15.1x    frame=30988 fps=362 q=-0.0 size=N/A time=00:21:32.45 bitrate=N/A speed=15.1x    frame=31181 fps=362 q=-0.0 size=N/A time=00:21:40.50 bitrate=N/A speed=15.1x    frame=31351 fps=362 q=-0.0 size=N/A time=00:21:47.59 bitrate=N/A speed=15.1x    frame=31529 fps=362 q=-0.0 size=N/A time=00:21:55.02 bitrate=N/A speed=15.1x    frame=31718 fps=362 q=-0.0 size=N/A time=00:22:02.90 bitrate=N/A speed=15.1x    frame=31891 fps=361 q=-0.0 size=N/A time=00:22:10.12 bitrate=N/A speed=15.1x    frame=32067 fps=361 q=-0.0 size=N/A time=00:22:17.46 bitrate=N/A speed=15.1x    frame=32262 fps=361 q=-0.0 size=N/A time=00:22:25.59 bitrate=N/A speed=15.1x    frame=32448 fps=361 q=-0.0 size=N/A time=00:22:33.35 bitrate=N/A speed=15.1x    frame=32637 fps=361 q=-0.0 size=N/A time=00:22:41.23 bitrate=N/A speed=15.1x    frame=32762 fps=361 q=-0.0 size=N/A time=00:22:46.44 bitrate=N/A speed=  15x    frame=32927 fps=361 q=-0.0 size=N/A time=00:22:53.33 bitrate=N/A speed=  15x    frame=33110 fps=361 q=-0.0 size=N/A time=00:23:00.96 bitrate=N/A speed=  15x    frame=33299 fps=361 q=-0.0 size=N/A time=00:23:08.84 bitrate=N/A speed=  15x    frame=33476 fps=360 q=-0.0 size=N/A time=00:23:16.22 bitrate=N/A speed=  15x    frame=33647 fps=360 q=-0.0 size=N/A time=00:23:23.36 bitrate=N/A speed=  15x    frame=33806 fps=360 q=-0.0 size=N/A time=00:23:29.99 bitrate=N/A speed=  15x    frame=33961 fps=360 q=-0.0 size=N/A time=00:23:36.45 bitrate=N/A speed=  15x    frame=34146 fps=360 q=-0.0 size=N/A time=00:23:44.17 bitrate=N/A speed=  15x    frame=34321 fps=360 q=-0.0 size=N/A time=00:23:51.47 bitrate=N/A speed=  15x    frame=34486 fps=359 q=-0.0 size=N/A time=00:23:58.35 bitrate=N/A speed=  15x    [Parsed_psnr_16 @ 000002449af45bc0] PSNR y:48.529361 u:50.174583 v:50.219050 average:49.017318 min:37.192611 max:inf
[out#0/null @ 000002448ce48a00] video:14903KiB audio:271276KiB subtitle:0KiB other streams:0KiB global headers:0KiB muxing overhead: unknown
frame=34683 fps=359 q=-0.0 Lsize=N/A time=00:24:06.57 bitrate=N/A speed=  15x    
